<?xml version="1.0" encoding="UTF-8" standalone="no" ?>
<!DOCTYPE svg PUBLIC "-//W3C//DTD SVG 1.1//EN" "http://www.w3.org/Graphics/SVG/1.1/DTD/svg11.dtd">
<svg xmlns="http://www.w3.org/2000/svg" xmlns:xlink="http://www.w3.org/1999/xlink" version="1.1" width="1080" height="1080" viewBox="0 0 1080 1080" xml:space="preserve">
<desc>Created with Fabric.js 5.2.4</desc>
<defs>
</defs>
<g transform="matrix(1 0 0 1 540 540)" id="75090f5b-7f77-4691-9155-ccff518af9a4"  >
</g>
<g transform="matrix(1 0 0 1 540 540)" id="cc854cb5-a3a5-4387-b9a9-2cd384f425c9"  >
<rect style="stroke: none; stroke-width: 1; stroke-dasharray: none; stroke-linecap: butt; stroke-dashoffset: 0; stroke-linejoin: miter; stroke-miterlimit: 4; fill: rgb(255,255,255); fill-rule: nonzero; opacity: 1; visibility: hidden;" vector-effect="non-scaling-stroke"  x="-540" y="-540" rx="0" ry="0" width="1080" height="1080" />
</g>
<g transform="matrix(1 0 0 1 546 537.5)"  >
<polyline style="stroke: rgb(55,198,156); stroke-width: 2; stroke-dasharray: none; stroke-linecap: round; stroke-dashoffset: 0; stroke-linejoin: round; stroke-miterlimit: 10; fill: none; fill-rule: nonzero; opacity: 1;" vector-effect="non-scaling-stroke"  points="-4,-8 -1,-8 2.6,6.7 4,8 " />
</g>
<g transform="matrix(1 0 0 1 550 545.5)"  >
<circle style="stroke: rgb(55,198,156); stroke-width: 2; stroke-dasharray: none; stroke-linecap: round; stroke-dashoffset: 0; stroke-linejoin: round; stroke-miterlimit: 10; fill: none; fill-rule: nonzero; opacity: 1;" vector-effect="non-scaling-stroke"  cx="0" cy="0" r="5" />
</g>
<g transform="matrix(1 0 0 1 530 545.5)"  >
<circle style="stroke: rgb(55,198,156); stroke-width: 2; stroke-dasharray: none; stroke-linecap: round; stroke-dashoffset: 0; stroke-linejoin: round; stroke-miterlimit: 10; fill: none; fill-rule: nonzero; opacity: 1;" vector-effect="non-scaling-stroke"  cx="0" cy="0" r="5" />
</g>
<g transform="matrix(1 0 0 1 538 541)"  >
<path style="stroke: rgb(55,198,156); stroke-width: 2; stroke-dasharray: none; stroke-linecap: round; stroke-dashoffset: 0; stroke-linejoin: round; stroke-miterlimit: 10; fill: none; fill-rule: nonzero; opacity: 1;" vector-effect="non-scaling-stroke"  transform=" translate(-14, -18.5)" d="M 6 23 C 7 23 15 23 15 23 L 22 14 L 10 14 L 6 23 z" stroke-linecap="round" />
</g>
<g transform="matrix(1 0 0 1 535 539)"  >
<path style="stroke: rgb(55,198,156); stroke-width: 2; stroke-dasharray: none; stroke-linecap: round; stroke-dashoffset: 0; stroke-linejoin: round; stroke-miterlimit: 10; fill: none; fill-rule: nonzero; opacity: 1;" vector-effect="non-scaling-stroke"  transform=" translate(-11, -16.5)" d="M 15 23 L 10.4 14.5 C 9.6 13 9.8 11.2 11 10 L 11 10 L 7 10" stroke-linecap="round" />
</g>
</svg>